<?xml version="1.0" standalone="no"?>
<!DOCTYPE svg PUBLIC "-//W3C//DTD SVG 20010904//EN"
 "http://www.w3.org/TR/2001/REC-SVG-20010904/DTD/svg10.dtd">
<svg version="1.0" xmlns="http://www.w3.org/2000/svg"
 width="200.000000pt" height="29.000000pt" viewBox="0 0 200.000000 29.000000"
 preserveAspectRatio="xMidYMid meet">

<g transform="translate(0.000000,29.000000) scale(0.100000,-0.100000)"
fill="#FFFFFF" stroke="none">
<path d="M10 180 l0 -110 58 0 c69 0 102 19 102 59 0 15 -6 36 -14 46 -10 14
-11 24 -3 35 15 25 1 67 -25 74 -13 3 -44 6 -70 6 l-48 0 0 -110z m120 65 c19
-23 -5 -45 -51 -45 -37 0 -39 2 -39 30 0 28 2 30 39 30 22 0 44 -6 51 -15z m5
-110 c0 -29 -2 -30 -47 -33 l-48 -3 0 36 0 36 48 -3 c45 -3 47 -4 47 -33z"/>
<path d="M380 180 c0 -67 4 -110 10 -110 6 0 10 43 10 110 0 67 -4 110 -10
110 -6 0 -10 -43 -10 -110z"/>
<path d="M440 180 c0 -91 3 -110 15 -110 12 0 15 19 15 110 0 91 -3 110 -15
110 -12 0 -15 -19 -15 -110z"/>
<path d="M510 275 c0 -8 7 -15 15 -15 8 0 15 7 15 15 0 8 -7 15 -15 15 -8 0
-15 -7 -15 -15z"/>
<path d="M730 180 c0 -91 3 -110 15 -110 12 0 15 13 15 60 0 55 2 60 24 66 38
9 46 -2 46 -67 0 -46 3 -59 15 -59 21 0 21 107 -1 138 -17 24 -53 29 -72 10
-9 -9 -12 -3 -12 30 0 31 -4 42 -15 42 -12 0 -15 -19 -15 -110z"/>
<path d="M900 180 l0 -110 65 0 c51 0 65 3 65 15 0 12 -13 15 -55 15 l-55 0 0
95 c0 57 -4 95 -10 95 -6 0 -10 -43 -10 -110z"/>
<path d="M1060 275 c0 -8 7 -15 15 -15 8 0 15 7 15 15 0 8 -7 15 -15 15 -8 0
-15 -7 -15 -15z"/>
<path d="M1153 283 c-7 -2 -13 -16 -13 -29 0 -15 -6 -24 -15 -24 -8 0 -15 -7
-15 -15 0 -8 7 -15 15 -15 12 0 15 -14 15 -65 0 -37 4 -65 10 -65 6 0 10 28
10 65 0 51 3 65 15 65 8 0 15 7 15 15 0 8 -7 15 -16 15 -9 0 -14 6 -12 13 4 9
99 13 421 15 362 2 417 4 417 17 0 13 -54 15 -417 14 -230 0 -424 -3 -430 -6z"/>
<path d="M210 166 c0 -45 5 -69 16 -80 20 -20 48 -20 68 0 15 14 16 14 16 0 0
-9 7 -16 15 -16 12 0 15 16 15 80 0 63 -3 80 -15 80 -10 0 -15 -15 -17 -56 -3
-60 -20 -83 -52 -71 -12 5 -16 20 -16 67 0 47 -3 60 -15 60 -12 0 -15 -14 -15
-64z"/>
<path d="M510 150 c0 -64 3 -80 15 -80 12 0 15 16 15 80 0 64 -3 80 -15 80
-12 0 -15 -16 -15 -80z"/>
<path d="M592 214 c-12 -8 -22 -21 -22 -28 0 -20 31 -43 68 -51 18 -4 31 -12
29 -18 -6 -18 -37 -21 -63 -6 -33 17 -44 1 -15 -22 28 -23 59 -24 89 -3 41 29
25 65 -36 81 -43 11 -36 28 11 26 40 -2 48 10 18 27 -28 14 -53 13 -79 -6z"/>
<path d="M1060 150 c0 -64 3 -80 15 -80 12 0 15 16 15 80 0 64 -3 80 -15 80
-12 0 -15 -16 -15 -80z"/>
<path d="M1225 205 c-16 -15 -25 -36 -25 -55 0 -38 39 -80 73 -80 29 0 76 34
64 46 -4 5 -17 3 -27 -4 -25 -15 -53 -15 -68 0 -22 22 -13 28 43 28 52 0 55 1
55 25 0 32 -33 65 -65 65 -14 0 -37 -11 -50 -25z m85 -25 c10 -19 8 -20 -35
-20 -46 0 -54 7 -33 28 19 19 56 14 68 -8z"/>
<path d="M1475 205 c-16 -15 -25 -36 -25 -55 0 -54 66 -99 106 -72 6 4 16 17
23 30 9 18 9 22 -2 22 -8 0 -20 -7 -27 -15 -28 -34 -74 -7 -68 41 4 36 31 53
58 36 38 -23 55 -8 24 22 -23 23 -61 19 -89 -9z"/>
<path d="M1625 205 c-16 -15 -25 -36 -25 -55 0 -38 39 -80 73 -80 43 0 70 31
70 80 0 74 -68 106 -118 55z m79 -21 c30 -30 9 -84 -33 -84 -25 0 -41 20 -41
50 0 47 42 66 74 34z"/>
<path d="M1780 150 c0 -64 3 -80 15 -80 12 0 15 13 15 59 0 51 3 61 20 66 32
10 40 -3 40 -66 0 -46 3 -59 15 -59 11 0 15 13 15 54 0 56 17 83 45 72 11 -4
15 -21 15 -66 0 -47 3 -60 15 -60 12 0 15 14 15 68 0 40 -5 73 -12 80 -17 17
-53 15 -68 -3 -12 -14 -15 -14 -30 0 -20 18 -41 19 -59 3 -11 -10 -14 -10 -18
0 -13 34 -23 4 -23 -68z"/>
<path d="M1390 85 c0 -8 7 -15 15 -15 8 0 15 7 15 15 0 8 -7 15 -15 15 -8 0
-15 -7 -15 -15z"/>
<path d="M10 35 c0 -13 69 -15 565 -15 496 0 565 2 565 15 0 13 -69 15 -565
15 -496 0 -565 -2 -565 -15z"/>
</g>
</svg>
